<?xml version="1.0" standalone="no"?><!DOCTYPE svg PUBLIC "-//W3C//DTD SVG 1.1//EN" "http://www.w3.org/Graphics/SVG/1.1/DTD/svg11.dtd"><svg class="icon" width="200px" height="200.00px" viewBox="0 0 1024 1024" version="1.1" xmlns="http://www.w3.org/2000/svg"><path d="M754.9 64.4H269.1c-10.3 0-18.7 8.4-18.7 18.7v857.8c0 10.3 8.4 18.7 18.7 18.7h485.7c10.3 0 18.7-8.4 18.7-18.7V83.1c0.1-10.3-8.3-18.7-18.6-18.7z m-18.7 37.4v721.6H287.8V101.8h448.4zM475 875.9c0-19.3 15.7-35 35-35s35 15.7 35 35-15.7 35-35 35c-19.3 0.1-35-15.6-35-35z" fill="#3E3A39" /></svg>